Formula One 2011 Season

Race 11: Hungarian Grand Prix,  Hungaroring Circuit.

Record Source: BBC One HD
Original Format: MPEG TS Stream
Date: Saturday 30th July 2011
Time: 12:10 to 14:20

Hungarian Grand Prix Qualifying in HD#

My sincere apoligies yesterday that the uploaded was corrupted without sound. Please find the correct fixed file here..

Jake Humphrey, Martin Brundle, David Coulthard & Eddie Jordan present the BBC F1 High
Definition coverage of the Qualifying Session for the 11th Race meeting of the 2011 Formula 
One Season, The Hungarian Grand Prix, from the Hungaroring Curcuit

Complete name                    : F1 2011 Race 11 Hungarian Qualifying 1080 H264 AC3.mkv
Format                           : Matroska
File size                        : 2.82 GiB
Duration                         : 2h 9mn
Overall bit rate                 : 3 119 Kbps
Encoded date                     : UTC 2011-07-31 17:52:29
Writing application              : mkvmerge v2.7.0 ('Do It Again') built on Apr 15 2009 00:27:10
Writing library                  : libebml v0.7.7 + libmatroska v0.8.1

Video
ID                               : 1
Format                           : AVC
Format/Info                      : Advanced Video Codec
Format profile                   : High@L4.0
Format settings, CABAC           : Yes
Format settings, ReFrames        : 4 frames
Codec ID                         : V_MPEG4/ISO/AVC
Duration                         : 2h 9mn
Bit rate                         : 2 929 Kbps
Width                            : 1 440 pixels
Height                           : 1 072 pixels
Display aspect ratio             : 16:9
Frame rate mode                  : Variable
Frame rate                       : 25.000 fps
Color space                      : YUV
Chroma subsampling               : 4:2:0
Bit depth                        : 8 bits
Scan type                        : Progressive
Bits/(Pixel*Frame)               : 0.076
Stream size                      : 2.65 GiB (94%)
Language                         : English
Color primaries                  : BT.709-5, BT.1361, IEC 61966-2-4, SMPTE RP177
Transfer characteristics         : BT.709-5, BT.1361
Matrix coefficients              : BT.709-5, BT.1361, IEC 61966-2-4 709, SMPTE RP177

Audio
ID                               : 2
Format                           : AC-3
Format/Info                      : Audio Coding 3
Mode extension                   : CM (complete main)
Codec ID                         : A_AC3
Duration                         : 2h 9mn
Bit rate mode                    : Constant
Bit rate                         : 128 Kbps
Channel(s)                       : 2 channels
Channel positions                : Front: L R
Sampling rate                    : 48.0 KHz
Bit depth                        : 16 bits
Compression mode                 : Lossy
Delay relative to video          : 4ms
Stream size                      : 118 MiB (4%)




Enjoy, TheBlackKnight


